<svg xmlns="http://www.w3.org/2000/svg" viewBox="0 0 425.55 344.7"><defs><style>.cls-1,.cls-2{fill-rule:evenodd;}.cls-2{fill:gold;}</style></defs><g id="Layer_2" data-name="Layer 2"><g id="Layer_1-2" data-name="Layer 1"><path class="cls-1" d="M0,156.64H76.75A76.84,76.84,0,0,1,153.4,233.3V344.7H0Z"/><path class="cls-1" d="M425.55,0H238.36a71.47,71.47,0,0,0-71.21,71.31V344.7h258.4Z"/><path class="cls-2" d="M0,156.64H76.56A76.83,76.83,0,0,0,153.21,80V76.56A76.81,76.81,0,0,0,76.56,0h0A76.8,76.8,0,0,0,0,76.56Z"/><path class="cls-2" d="M315.39,191.72a53.18,53.18,0,1,0-23.29,0,63,63,0,0,0-51.17,61.72V344.7H366.65V253.44A63.1,63.1,0,0,0,315.39,191.72Z"/></g></g></svg>